<svg xmlns="http://www.w3.org/2000/svg" width="60" height="71" viewBox="0 0 60 71">
  <g id="Gruppe_8" data-name="Gruppe 8" transform="translate(-419 -647)">
    <circle id="Ellipse_80" data-name="Ellipse 80" cx="2.5" cy="2.5" r="2.5" transform="translate(424 718) rotate(180)" fill="#6f7fa5"/>
    <circle id="Ellipse_61" data-name="Ellipse 61" cx="2.5" cy="2.5" r="2.5" transform="translate(424 663) rotate(180)" fill="#6f7fa5"/>
    <circle id="Ellipse_90" data-name="Ellipse 90" cx="2.5" cy="2.5" r="2.5" transform="translate(435 713) rotate(90)" fill="#6f7fa5"/>
    <circle id="Ellipse_62" data-name="Ellipse 62" cx="2.5" cy="2.5" r="2.5" transform="translate(424 707) rotate(180)" fill="#6f7fa5"/>
    <circle id="Ellipse_86" data-name="Ellipse 86" cx="2.5" cy="2.5" r="2.5" transform="translate(479 713) rotate(90)" fill="#6f7fa5"/>
    <circle id="Ellipse_63" data-name="Ellipse 63" cx="2.5" cy="2.5" r="2.5" transform="translate(424 652) rotate(180)" fill="#6f7fa5"/>
    <circle id="Ellipse_64" data-name="Ellipse 64" cx="2.5" cy="2.5" r="2.5" transform="translate(424 696) rotate(180)" fill="#6f7fa5"/>
    <circle id="Ellipse_87" data-name="Ellipse 87" cx="2.5" cy="2.5" r="2.5" transform="translate(468 713) rotate(90)" fill="#6f7fa5"/>
    <circle id="Ellipse_66" data-name="Ellipse 66" cx="2.5" cy="2.5" r="2.5" transform="translate(424 685) rotate(180)" fill="#6f7fa5"/>
    <circle id="Ellipse_88" data-name="Ellipse 88" cx="2.5" cy="2.5" r="2.5" transform="translate(457 713) rotate(90)" fill="#6f7fa5"/>
    <circle id="Ellipse_68" data-name="Ellipse 68" cx="2.5" cy="2.5" r="2.5" transform="translate(424 674) rotate(180)" fill="#6f7fa5"/>
    <circle id="Ellipse_89" data-name="Ellipse 89" cx="2.5" cy="2.5" r="2.5" transform="translate(446 713) rotate(90)" fill="#6f7fa5"/>
  </g>
</svg>
