<svg xmlns="http://www.w3.org/2000/svg" version="1.1" xmlns:xlink="http://www.w3.org/1999/xlink" xmlns:svgjs="http://svgjs.dev/svgjs" width="1920" height="1080" preserveAspectRatio="none" viewBox="0 0 1920 1080">
    <g mask="url(&quot;#SvgjsMask1008&quot;)" fill="none">
        <rect width="1920" height="1080" x="0" y="0" fill="#0e2a47"></rect>
        <path d="M88.05 984.39L153.01 1021.89L153.01 1096.89L88.05 1134.39L23.1 1096.89L23.1 1021.89zM217.96 534.39L282.92 571.89L282.92 646.89L217.96 684.39L153.01 646.89L153.01 571.89zM282.92 196.89L347.87 234.39L347.87 309.39L282.92 346.89L217.96 309.39L217.96 234.39zM347.87 309.39L412.82 346.89L412.82 421.89L347.87 459.39L282.92 421.89L282.92 346.89zM412.82 -28.11L477.78 9.39L477.78 84.39L412.82 121.89L347.87 84.39L347.87 9.39zM477.78 84.39L542.73 121.89L542.73 196.89L477.78 234.39L412.82 196.89L412.82 121.89zM477.78 309.39L542.73 346.89L542.73 421.89L477.78 459.39L412.82 421.89L412.82 346.89zM607.68 309.39L672.64 346.89L672.64 421.89L607.68 459.39L542.73 421.89L542.73 346.89zM607.68 984.39L672.64 1021.89L672.64 1096.89L607.68 1134.39L542.73 1096.89L542.73 1021.89zM672.64 421.89L737.59 459.39L737.59 534.39L672.64 571.89L607.68 534.39L607.68 459.39zM737.59 984.39L802.55 1021.89L802.55 1096.89L737.59 1134.39L672.64 1096.89L672.64 1021.89zM802.54 196.89L867.5 234.39L867.5 309.39L802.54 346.89L737.59 309.39L737.59 234.39zM867.5 759.39L932.45 796.89L932.45 871.89L867.5 909.39L802.54 871.89L802.54 796.89zM997.41 309.39L1062.36 346.89L1062.36 421.89L997.41 459.39L932.45 421.89L932.45 346.89zM932.45 646.89L997.41 684.39L997.41 759.39L932.45 796.89L867.5 759.39L867.5 684.39zM932.45 871.89L997.41 909.39L997.41 984.39L932.45 1021.89L867.5 984.39L867.5 909.39zM1062.36 -28.11L1127.31 9.39L1127.31 84.39L1062.36 121.89L997.41 84.39L997.41 9.39zM1127.31 759.39L1192.27 796.89L1192.27 871.89L1127.31 909.39L1062.36 871.89L1062.36 796.89zM1257.22 84.39L1322.17 121.89L1322.17 196.89L1257.22 234.39L1192.27 196.89L1192.27 121.89zM1192.27 421.89L1257.22 459.39L1257.22 534.39L1192.27 571.89L1127.31 534.39L1127.31 459.39zM1322.17 -28.11L1387.13 9.39L1387.13 84.39L1322.17 121.89L1257.22 84.39L1257.22 9.39zM1387.13 534.39L1452.08 571.89L1452.08 646.89L1387.13 684.39L1322.17 646.89L1322.17 571.89zM1322.17 871.89L1387.13 909.39L1387.13 984.39L1322.17 1021.89L1257.22 984.39L1257.22 909.39zM1517.04 84.39L1581.99 121.89L1581.99 196.89L1517.04 234.39L1452.08 196.89L1452.08 121.89zM1452.08 196.89L1517.04 234.39L1517.04 309.39L1452.08 346.89L1387.13 309.39L1387.13 234.39zM1646.94 84.39L1711.9 121.89L1711.9 196.89L1646.94 234.39L1581.99 196.89L1581.99 121.89zM1581.99 421.89L1646.94 459.39L1646.94 534.39L1581.99 571.89L1517.04 534.39L1517.04 459.39zM1711.9 871.89L1776.85 909.39L1776.85 984.39L1711.9 1021.89L1646.94 984.39L1646.94 909.39zM1906.76 759.39L1971.71 796.89L1971.71 871.89L1906.76 909.39L1841.8 871.89L1841.8 796.89zM1841.8 871.89L1906.76 909.39L1906.76 984.39L1841.8 1021.89L1776.85 984.39L1776.85 909.39zM1906.76 984.39L1971.71 1021.89L1971.71 1096.89L1906.76 1134.39L1841.8 1096.89L1841.8 1021.89z" stroke="#03305d" stroke-width="2"></path>
        <path d="M80.55 984.39 a7.5 7.5 0 1 0 15 0 a7.5 7.5 0 1 0 -15 0zM145.51 1021.89 a7.5 7.5 0 1 0 15 0 a7.5 7.5 0 1 0 -15 0zM145.51 1096.89 a7.5 7.5 0 1 0 15 0 a7.5 7.5 0 1 0 -15 0zM80.55 1134.39 a7.5 7.5 0 1 0 15 0 a7.5 7.5 0 1 0 -15 0zM15.6 1096.89 a7.5 7.5 0 1 0 15 0 a7.5 7.5 0 1 0 -15 0zM15.6 1021.89 a7.5 7.5 0 1 0 15 0 a7.5 7.5 0 1 0 -15 0zM210.46 534.39 a7.5 7.5 0 1 0 15 0 a7.5 7.5 0 1 0 -15 0zM275.42 571.89 a7.5 7.5 0 1 0 15 0 a7.5 7.5 0 1 0 -15 0zM275.42 646.89 a7.5 7.5 0 1 0 15 0 a7.5 7.5 0 1 0 -15 0zM210.46 684.39 a7.5 7.5 0 1 0 15 0 a7.5 7.5 0 1 0 -15 0zM145.51 646.89 a7.5 7.5 0 1 0 15 0 a7.5 7.5 0 1 0 -15 0zM145.51 571.89 a7.5 7.5 0 1 0 15 0 a7.5 7.5 0 1 0 -15 0zM275.42 196.89 a7.5 7.5 0 1 0 15 0 a7.5 7.5 0 1 0 -15 0zM340.37 234.39 a7.5 7.5 0 1 0 15 0 a7.5 7.5 0 1 0 -15 0zM340.37 309.39 a7.5 7.5 0 1 0 15 0 a7.5 7.5 0 1 0 -15 0zM275.42 346.89 a7.5 7.5 0 1 0 15 0 a7.5 7.5 0 1 0 -15 0zM210.46 309.39 a7.5 7.5 0 1 0 15 0 a7.5 7.5 0 1 0 -15 0zM210.46 234.39 a7.5 7.5 0 1 0 15 0 a7.5 7.5 0 1 0 -15 0zM405.32 346.89 a7.5 7.5 0 1 0 15 0 a7.5 7.5 0 1 0 -15 0zM405.32 421.89 a7.5 7.5 0 1 0 15 0 a7.5 7.5 0 1 0 -15 0zM340.37 459.39 a7.5 7.5 0 1 0 15 0 a7.5 7.5 0 1 0 -15 0zM275.42 421.89 a7.5 7.5 0 1 0 15 0 a7.5 7.5 0 1 0 -15 0zM405.32 -28.11 a7.5 7.5 0 1 0 15 0 a7.5 7.5 0 1 0 -15 0zM470.28 9.39 a7.5 7.5 0 1 0 15 0 a7.5 7.5 0 1 0 -15 0zM470.28 84.39 a7.5 7.5 0 1 0 15 0 a7.5 7.5 0 1 0 -15 0zM405.32 121.89 a7.5 7.5 0 1 0 15 0 a7.5 7.5 0 1 0 -15 0zM340.37 84.39 a7.5 7.5 0 1 0 15 0 a7.5 7.5 0 1 0 -15 0zM340.37 9.39 a7.5 7.5 0 1 0 15 0 a7.5 7.5 0 1 0 -15 0zM535.23 121.89 a7.5 7.5 0 1 0 15 0 a7.5 7.5 0 1 0 -15 0zM535.23 196.89 a7.5 7.5 0 1 0 15 0 a7.5 7.5 0 1 0 -15 0zM470.28 234.39 a7.5 7.5 0 1 0 15 0 a7.5 7.5 0 1 0 -15 0zM405.32 196.89 a7.5 7.5 0 1 0 15 0 a7.5 7.5 0 1 0 -15 0zM470.28 309.39 a7.5 7.5 0 1 0 15 0 a7.5 7.5 0 1 0 -15 0zM535.23 346.89 a7.5 7.5 0 1 0 15 0 a7.5 7.5 0 1 0 -15 0zM535.23 421.89 a7.5 7.5 0 1 0 15 0 a7.5 7.5 0 1 0 -15 0zM470.28 459.39 a7.5 7.5 0 1 0 15 0 a7.5 7.5 0 1 0 -15 0zM600.18 309.39 a7.5 7.5 0 1 0 15 0 a7.5 7.5 0 1 0 -15 0zM665.14 346.89 a7.5 7.5 0 1 0 15 0 a7.5 7.5 0 1 0 -15 0zM665.14 421.89 a7.5 7.5 0 1 0 15 0 a7.5 7.5 0 1 0 -15 0zM600.18 459.39 a7.5 7.5 0 1 0 15 0 a7.5 7.5 0 1 0 -15 0zM600.18 984.39 a7.5 7.5 0 1 0 15 0 a7.5 7.5 0 1 0 -15 0zM665.14 1021.89 a7.5 7.5 0 1 0 15 0 a7.5 7.5 0 1 0 -15 0zM665.14 1096.89 a7.5 7.5 0 1 0 15 0 a7.5 7.5 0 1 0 -15 0zM600.18 1134.39 a7.5 7.5 0 1 0 15 0 a7.5 7.5 0 1 0 -15 0zM535.23 1096.89 a7.5 7.5 0 1 0 15 0 a7.5 7.5 0 1 0 -15 0zM535.23 1021.89 a7.5 7.5 0 1 0 15 0 a7.5 7.5 0 1 0 -15 0zM730.09 459.39 a7.5 7.5 0 1 0 15 0 a7.5 7.5 0 1 0 -15 0zM730.09 534.39 a7.5 7.5 0 1 0 15 0 a7.5 7.5 0 1 0 -15 0zM665.14 571.89 a7.5 7.5 0 1 0 15 0 a7.5 7.5 0 1 0 -15 0zM600.18 534.39 a7.5 7.5 0 1 0 15 0 a7.5 7.5 0 1 0 -15 0zM730.09 984.39 a7.5 7.5 0 1 0 15 0 a7.5 7.5 0 1 0 -15 0zM795.05 1021.89 a7.5 7.5 0 1 0 15 0 a7.5 7.5 0 1 0 -15 0zM795.05 1096.89 a7.5 7.5 0 1 0 15 0 a7.5 7.5 0 1 0 -15 0zM730.09 1134.39 a7.5 7.5 0 1 0 15 0 a7.5 7.5 0 1 0 -15 0zM795.04 196.89 a7.5 7.5 0 1 0 15 0 a7.5 7.5 0 1 0 -15 0zM860 234.39 a7.5 7.5 0 1 0 15 0 a7.5 7.5 0 1 0 -15 0zM860 309.39 a7.5 7.5 0 1 0 15 0 a7.5 7.5 0 1 0 -15 0zM795.04 346.89 a7.5 7.5 0 1 0 15 0 a7.5 7.5 0 1 0 -15 0zM730.09 309.39 a7.5 7.5 0 1 0 15 0 a7.5 7.5 0 1 0 -15 0zM730.09 234.39 a7.5 7.5 0 1 0 15 0 a7.5 7.5 0 1 0 -15 0zM860 759.39 a7.5 7.5 0 1 0 15 0 a7.5 7.5 0 1 0 -15 0zM924.95 796.89 a7.5 7.5 0 1 0 15 0 a7.5 7.5 0 1 0 -15 0zM924.95 871.89 a7.5 7.5 0 1 0 15 0 a7.5 7.5 0 1 0 -15 0zM860 909.39 a7.5 7.5 0 1 0 15 0 a7.5 7.5 0 1 0 -15 0zM795.04 871.89 a7.5 7.5 0 1 0 15 0 a7.5 7.5 0 1 0 -15 0zM795.04 796.89 a7.5 7.5 0 1 0 15 0 a7.5 7.5 0 1 0 -15 0zM989.91 309.39 a7.5 7.5 0 1 0 15 0 a7.5 7.5 0 1 0 -15 0zM1054.86 346.89 a7.5 7.5 0 1 0 15 0 a7.5 7.5 0 1 0 -15 0zM1054.86 421.89 a7.5 7.5 0 1 0 15 0 a7.5 7.5 0 1 0 -15 0zM989.91 459.39 a7.5 7.5 0 1 0 15 0 a7.5 7.5 0 1 0 -15 0zM924.95 421.89 a7.5 7.5 0 1 0 15 0 a7.5 7.5 0 1 0 -15 0zM924.95 346.89 a7.5 7.5 0 1 0 15 0 a7.5 7.5 0 1 0 -15 0zM924.95 646.89 a7.5 7.5 0 1 0 15 0 a7.5 7.5 0 1 0 -15 0zM989.91 684.39 a7.5 7.5 0 1 0 15 0 a7.5 7.5 0 1 0 -15 0zM989.91 759.39 a7.5 7.5 0 1 0 15 0 a7.5 7.5 0 1 0 -15 0zM860 684.39 a7.5 7.5 0 1 0 15 0 a7.5 7.5 0 1 0 -15 0zM989.91 909.39 a7.5 7.5 0 1 0 15 0 a7.5 7.5 0 1 0 -15 0zM989.91 984.39 a7.5 7.5 0 1 0 15 0 a7.5 7.5 0 1 0 -15 0zM924.95 1021.89 a7.5 7.5 0 1 0 15 0 a7.5 7.5 0 1 0 -15 0zM860 984.39 a7.5 7.5 0 1 0 15 0 a7.5 7.5 0 1 0 -15 0zM1054.86 -28.11 a7.5 7.5 0 1 0 15 0 a7.5 7.5 0 1 0 -15 0zM1119.81 9.39 a7.5 7.5 0 1 0 15 0 a7.5 7.5 0 1 0 -15 0zM1119.81 84.39 a7.5 7.5 0 1 0 15 0 a7.5 7.5 0 1 0 -15 0zM1054.86 121.89 a7.5 7.5 0 1 0 15 0 a7.5 7.5 0 1 0 -15 0zM989.91 84.39 a7.5 7.5 0 1 0 15 0 a7.5 7.5 0 1 0 -15 0zM989.91 9.39 a7.5 7.5 0 1 0 15 0 a7.5 7.5 0 1 0 -15 0zM1119.81 759.39 a7.5 7.5 0 1 0 15 0 a7.5 7.5 0 1 0 -15 0zM1184.77 796.89 a7.5 7.5 0 1 0 15 0 a7.5 7.5 0 1 0 -15 0zM1184.77 871.89 a7.5 7.5 0 1 0 15 0 a7.5 7.5 0 1 0 -15 0zM1119.81 909.39 a7.5 7.5 0 1 0 15 0 a7.5 7.5 0 1 0 -15 0zM1054.86 871.89 a7.5 7.5 0 1 0 15 0 a7.5 7.5 0 1 0 -15 0zM1054.86 796.89 a7.5 7.5 0 1 0 15 0 a7.5 7.5 0 1 0 -15 0zM1249.72 84.39 a7.5 7.5 0 1 0 15 0 a7.5 7.5 0 1 0 -15 0zM1314.67 121.89 a7.5 7.5 0 1 0 15 0 a7.5 7.5 0 1 0 -15 0zM1314.67 196.89 a7.5 7.5 0 1 0 15 0 a7.5 7.5 0 1 0 -15 0zM1249.72 234.39 a7.5 7.5 0 1 0 15 0 a7.5 7.5 0 1 0 -15 0zM1184.77 196.89 a7.5 7.5 0 1 0 15 0 a7.5 7.5 0 1 0 -15 0zM1184.77 121.89 a7.5 7.5 0 1 0 15 0 a7.5 7.5 0 1 0 -15 0zM1184.77 421.89 a7.5 7.5 0 1 0 15 0 a7.5 7.5 0 1 0 -15 0zM1249.72 459.39 a7.5 7.5 0 1 0 15 0 a7.5 7.5 0 1 0 -15 0zM1249.72 534.39 a7.5 7.5 0 1 0 15 0 a7.5 7.5 0 1 0 -15 0zM1184.77 571.89 a7.5 7.5 0 1 0 15 0 a7.5 7.5 0 1 0 -15 0zM1119.81 534.39 a7.5 7.5 0 1 0 15 0 a7.5 7.5 0 1 0 -15 0zM1119.81 459.39 a7.5 7.5 0 1 0 15 0 a7.5 7.5 0 1 0 -15 0zM1314.67 -28.11 a7.5 7.5 0 1 0 15 0 a7.5 7.5 0 1 0 -15 0zM1379.63 9.39 a7.5 7.5 0 1 0 15 0 a7.5 7.5 0 1 0 -15 0zM1379.63 84.39 a7.5 7.5 0 1 0 15 0 a7.5 7.5 0 1 0 -15 0zM1249.72 9.39 a7.5 7.5 0 1 0 15 0 a7.5 7.5 0 1 0 -15 0zM1379.63 534.39 a7.5 7.5 0 1 0 15 0 a7.5 7.5 0 1 0 -15 0zM1444.58 571.89 a7.5 7.5 0 1 0 15 0 a7.5 7.5 0 1 0 -15 0zM1444.58 646.89 a7.5 7.5 0 1 0 15 0 a7.5 7.5 0 1 0 -15 0zM1379.63 684.39 a7.5 7.5 0 1 0 15 0 a7.5 7.5 0 1 0 -15 0zM1314.67 646.89 a7.5 7.5 0 1 0 15 0 a7.5 7.5 0 1 0 -15 0zM1314.67 571.89 a7.5 7.5 0 1 0 15 0 a7.5 7.5 0 1 0 -15 0zM1314.67 871.89 a7.5 7.5 0 1 0 15 0 a7.5 7.5 0 1 0 -15 0zM1379.63 909.39 a7.5 7.5 0 1 0 15 0 a7.5 7.5 0 1 0 -15 0zM1379.63 984.39 a7.5 7.5 0 1 0 15 0 a7.5 7.5 0 1 0 -15 0zM1314.67 1021.89 a7.5 7.5 0 1 0 15 0 a7.5 7.5 0 1 0 -15 0zM1249.72 984.39 a7.5 7.5 0 1 0 15 0 a7.5 7.5 0 1 0 -15 0zM1249.72 909.39 a7.5 7.5 0 1 0 15 0 a7.5 7.5 0 1 0 -15 0zM1509.54 84.39 a7.5 7.5 0 1 0 15 0 a7.5 7.5 0 1 0 -15 0zM1574.49 121.89 a7.5 7.5 0 1 0 15 0 a7.5 7.5 0 1 0 -15 0zM1574.49 196.89 a7.5 7.5 0 1 0 15 0 a7.5 7.5 0 1 0 -15 0zM1509.54 234.39 a7.5 7.5 0 1 0 15 0 a7.5 7.5 0 1 0 -15 0zM1444.58 196.89 a7.5 7.5 0 1 0 15 0 a7.5 7.5 0 1 0 -15 0zM1444.58 121.89 a7.5 7.5 0 1 0 15 0 a7.5 7.5 0 1 0 -15 0zM1509.54 309.39 a7.5 7.5 0 1 0 15 0 a7.5 7.5 0 1 0 -15 0zM1444.58 346.89 a7.5 7.5 0 1 0 15 0 a7.5 7.5 0 1 0 -15 0zM1379.63 309.39 a7.5 7.5 0 1 0 15 0 a7.5 7.5 0 1 0 -15 0zM1379.63 234.39 a7.5 7.5 0 1 0 15 0 a7.5 7.5 0 1 0 -15 0zM1639.44 84.39 a7.5 7.5 0 1 0 15 0 a7.5 7.5 0 1 0 -15 0zM1704.4 121.89 a7.5 7.5 0 1 0 15 0 a7.5 7.5 0 1 0 -15 0zM1704.4 196.89 a7.5 7.5 0 1 0 15 0 a7.5 7.5 0 1 0 -15 0zM1639.44 234.39 a7.5 7.5 0 1 0 15 0 a7.5 7.5 0 1 0 -15 0zM1574.49 421.89 a7.5 7.5 0 1 0 15 0 a7.5 7.5 0 1 0 -15 0zM1639.44 459.39 a7.5 7.5 0 1 0 15 0 a7.5 7.5 0 1 0 -15 0zM1639.44 534.39 a7.5 7.5 0 1 0 15 0 a7.5 7.5 0 1 0 -15 0zM1574.49 571.89 a7.5 7.5 0 1 0 15 0 a7.5 7.5 0 1 0 -15 0zM1509.54 534.39 a7.5 7.5 0 1 0 15 0 a7.5 7.5 0 1 0 -15 0zM1509.54 459.39 a7.5 7.5 0 1 0 15 0 a7.5 7.5 0 1 0 -15 0zM1704.4 871.89 a7.5 7.5 0 1 0 15 0 a7.5 7.5 0 1 0 -15 0zM1769.35 909.39 a7.5 7.5 0 1 0 15 0 a7.5 7.5 0 1 0 -15 0zM1769.35 984.39 a7.5 7.5 0 1 0 15 0 a7.5 7.5 0 1 0 -15 0zM1704.4 1021.89 a7.5 7.5 0 1 0 15 0 a7.5 7.5 0 1 0 -15 0zM1639.44 984.39 a7.5 7.5 0 1 0 15 0 a7.5 7.5 0 1 0 -15 0zM1639.44 909.39 a7.5 7.5 0 1 0 15 0 a7.5 7.5 0 1 0 -15 0zM1899.26 759.39 a7.5 7.5 0 1 0 15 0 a7.5 7.5 0 1 0 -15 0zM1964.21 796.89 a7.5 7.5 0 1 0 15 0 a7.5 7.5 0 1 0 -15 0zM1964.21 871.89 a7.5 7.5 0 1 0 15 0 a7.5 7.5 0 1 0 -15 0zM1899.26 909.39 a7.5 7.5 0 1 0 15 0 a7.5 7.5 0 1 0 -15 0zM1834.3 871.89 a7.5 7.5 0 1 0 15 0 a7.5 7.5 0 1 0 -15 0zM1834.3 796.89 a7.5 7.5 0 1 0 15 0 a7.5 7.5 0 1 0 -15 0zM1899.26 984.39 a7.5 7.5 0 1 0 15 0 a7.5 7.5 0 1 0 -15 0zM1834.3 1021.89 a7.5 7.5 0 1 0 15 0 a7.5 7.5 0 1 0 -15 0zM1964.21 1021.89 a7.5 7.5 0 1 0 15 0 a7.5 7.5 0 1 0 -15 0zM1964.21 1096.89 a7.5 7.5 0 1 0 15 0 a7.5 7.5 0 1 0 -15 0zM1899.26 1134.39 a7.5 7.5 0 1 0 15 0 a7.5 7.5 0 1 0 -15 0zM1834.3 1096.89 a7.5 7.5 0 1 0 15 0 a7.5 7.5 0 1 0 -15 0z" fill="#03305d"></path>
        <path d="M67.77 361.23L111.08 386.23L111.08 436.23L67.77 461.23L24.47 436.23L24.47 386.23zM67.77 661.23L111.08 686.23L111.08 736.23L67.77 761.23L24.47 736.23L24.47 686.23zM67.77 811.23L111.08 836.23L111.08 886.23L67.77 911.23L24.47 886.23L24.47 836.23zM24.47 886.23L67.77 911.23L67.77 961.23L24.47 986.23L-18.83 961.23L-18.83 911.23zM111.08 136.23L154.38 161.23L154.38 211.23L111.08 236.23L67.77 211.23L67.77 161.23zM111.08 286.23L154.38 311.23L154.38 361.23L111.08 386.23L67.77 361.23L67.77 311.23zM111.08 586.23L154.38 611.23L154.38 661.23L111.08 686.23L67.77 661.23L67.77 611.23zM197.68 286.23L240.98 311.23L240.98 361.23L197.68 386.23L154.38 361.23L154.38 311.23zM240.98 361.23L284.28 386.23L284.28 436.23L240.98 461.23L197.68 436.23L197.68 386.23zM197.68 586.23L240.98 611.23L240.98 661.23L197.68 686.23L154.38 661.23L154.38 611.23zM197.68 886.23L240.98 911.23L240.98 961.23L197.68 986.23L154.38 961.23L154.38 911.23zM197.68 1036.23L240.98 1061.23L240.98 1111.23L197.68 1136.23L154.38 1111.23L154.38 1061.23zM284.28 286.23L327.59 311.23L327.59 361.23L284.28 386.23L240.98 361.23L240.98 311.23zM327.59 511.23L370.89 536.23L370.89 586.23L327.59 611.23L284.28 586.23L284.28 536.23zM284.28 1036.23L327.59 1061.23L327.59 1111.23L284.28 1136.23L240.98 1111.23L240.98 1061.23zM370.89 286.23L414.19 311.23L414.19 361.23L370.89 386.23L327.59 361.23L327.59 311.23zM414.19 361.23L457.5 386.23L457.5 436.23L414.19 461.23L370.89 436.23L370.89 386.23zM370.89 886.23L414.19 911.23L414.19 961.23L370.89 986.23L327.59 961.23L327.59 911.23zM414.19 961.23L457.5 986.23L457.5 1036.23L414.19 1061.23L370.89 1036.23L370.89 986.23zM500.8 211.23L544.1 236.23L544.1 286.23L500.8 311.23L457.5 286.23L457.5 236.23zM500.8 361.23L544.1 386.23L544.1 436.23L500.8 461.23L457.5 436.23L457.5 386.23zM457.5 436.23L500.8 461.23L500.8 511.23L457.5 536.23L414.19 511.23L414.19 461.23zM457.5 586.23L500.8 611.23L500.8 661.23L457.5 686.23L414.19 661.23L414.19 611.23zM500.8 961.23L544.1 986.23L544.1 1036.23L500.8 1061.23L457.5 1036.23L457.5 986.23zM544.1 586.23L587.4 611.23L587.4 661.23L544.1 686.23L500.8 661.23L500.8 611.23zM587.4 811.23L630.71 836.23L630.71 886.23L587.4 911.23L544.1 886.23L544.1 836.23zM544.1 1036.23L587.4 1061.23L587.4 1111.23L544.1 1136.23L500.8 1111.23L500.8 1061.23zM630.71 586.23L674.01 611.23L674.01 661.23L630.71 686.23L587.4 661.23L587.4 611.23zM674.01 811.23L717.31 836.23L717.31 886.23L674.01 911.23L630.71 886.23L630.71 836.23zM630.71 886.23L674.01 911.23L674.01 961.23L630.71 986.23L587.4 961.23L587.4 911.23zM717.31 -13.77L760.61 11.23L760.61 61.23L717.31 86.23L674.01 61.23L674.01 11.23zM760.61 511.23L803.92 536.23L803.92 586.23L760.61 611.23L717.31 586.23L717.31 536.23zM717.31 586.23L760.61 611.23L760.61 661.23L717.31 686.23L674.01 661.23L674.01 611.23zM717.31 1036.23L760.61 1061.23L760.61 1111.23L717.31 1136.23L674.01 1111.23L674.01 1061.23zM847.22 211.23L890.52 236.23L890.52 286.23L847.22 311.23L803.92 286.23L803.92 236.23zM803.92 586.23L847.22 611.23L847.22 661.23L803.92 686.23L760.61 661.23L760.61 611.23zM803.92 736.23L847.22 761.23L847.22 811.23L803.92 836.23L760.61 811.23L760.61 761.23zM847.22 961.23L890.52 986.23L890.52 1036.23L847.22 1061.23L803.92 1036.23L803.92 986.23zM890.52 -13.77L933.82 11.23L933.82 61.23L890.52 86.23L847.22 61.23L847.22 11.23zM890.52 136.23L933.82 161.23L933.82 211.23L890.52 236.23L847.22 211.23L847.22 161.23zM933.82 361.23L977.13 386.23L977.13 436.23L933.82 461.23L890.52 436.23L890.52 386.23zM933.82 811.23L977.13 836.23L977.13 886.23L933.82 911.23L890.52 886.23L890.52 836.23zM890.52 1036.23L933.82 1061.23L933.82 1111.23L890.52 1136.23L847.22 1111.23L847.22 1061.23zM1020.43 661.23L1063.73 686.23L1063.73 736.23L1020.43 761.23L977.13 736.23L977.13 686.23zM1020.43 961.23L1063.73 986.23L1063.73 1036.23L1020.43 1061.23L977.13 1036.23L977.13 986.23zM1063.73 -13.77L1107.03 11.23L1107.03 61.23L1063.73 86.23L1020.43 61.23L1020.43 11.23zM1063.73 286.23L1107.03 311.23L1107.03 361.23L1063.73 386.23L1020.43 361.23L1020.43 311.23zM1107.03 661.23L1150.34 686.23L1150.34 736.23L1107.03 761.23L1063.73 736.23L1063.73 686.23zM1107.03 811.23L1150.34 836.23L1150.34 886.23L1107.03 911.23L1063.73 886.23L1063.73 836.23zM1193.64 661.23L1236.94 686.23L1236.94 736.23L1193.64 761.23L1150.34 736.23L1150.34 686.23zM1236.94 286.23L1280.24 311.23L1280.24 361.23L1236.94 386.23L1193.64 361.23L1193.64 311.23zM1280.24 511.23L1323.55 536.23L1323.55 586.23L1280.24 611.23L1236.94 586.23L1236.94 536.23zM1280.24 811.23L1323.55 836.23L1323.55 886.23L1280.24 911.23L1236.94 886.23L1236.94 836.23zM1323.55 136.23L1366.85 161.23L1366.85 211.23L1323.55 236.23L1280.24 211.23L1280.24 161.23zM1453.45 61.23L1496.76 86.23L1496.76 136.23L1453.45 161.23L1410.15 136.23L1410.15 86.23zM1453.45 361.23L1496.76 386.23L1496.76 436.23L1453.45 461.23L1410.15 436.23L1410.15 386.23zM1540.06 61.23L1583.36 86.23L1583.36 136.23L1540.06 161.23L1496.76 136.23L1496.76 86.23zM1540.06 211.23L1583.36 236.23L1583.36 286.23L1540.06 311.23L1496.76 286.23L1496.76 236.23zM1496.76 886.23L1540.06 911.23L1540.06 961.23L1496.76 986.23L1453.45 961.23L1453.45 911.23zM1496.76 1036.23L1540.06 1061.23L1540.06 1111.23L1496.76 1136.23L1453.45 1111.23L1453.45 1061.23zM1626.66 211.23L1669.97 236.23L1669.97 286.23L1626.66 311.23L1583.36 286.23L1583.36 236.23zM1626.66 361.23L1669.97 386.23L1669.97 436.23L1626.66 461.23L1583.36 436.23L1583.36 386.23zM1583.36 436.23L1626.66 461.23L1626.66 511.23L1583.36 536.23L1540.06 511.23L1540.06 461.23zM1713.27 661.23L1756.57 686.23L1756.57 736.23L1713.27 761.23L1669.97 736.23L1669.97 686.23zM1669.97 736.23L1713.27 761.23L1713.27 811.23L1669.97 836.23L1626.66 811.23L1626.66 761.23zM1799.87 61.23L1843.18 86.23L1843.18 136.23L1799.87 161.23L1756.57 136.23L1756.57 86.23zM1756.57 286.23L1799.87 311.23L1799.87 361.23L1756.57 386.23L1713.27 361.23L1713.27 311.23zM1799.87 811.23L1843.18 836.23L1843.18 886.23L1799.87 911.23L1756.57 886.23L1756.57 836.23zM1799.87 961.23L1843.18 986.23L1843.18 1036.23L1799.87 1061.23L1756.57 1036.23L1756.57 986.23zM1843.18 136.23L1886.48 161.23L1886.48 211.23L1843.18 236.23L1799.87 211.23L1799.87 161.23zM1886.48 511.23L1929.78 536.23L1929.78 586.23L1886.48 611.23L1843.18 586.23L1843.18 536.23zM1843.18 586.23L1886.48 611.23L1886.48 661.23L1843.18 686.23L1799.87 661.23L1799.87 611.23zM1929.78 -13.77L1973.08 11.23L1973.08 61.23L1929.78 86.23L1886.48 61.23L1886.48 11.23zM1929.78 136.23L1973.08 161.23L1973.08 211.23L1929.78 236.23L1886.48 211.23L1886.48 161.23zM1973.08 211.23L2016.39 236.23L2016.39 286.23L1973.08 311.23L1929.78 286.23L1929.78 236.23zM1973.08 811.23L2016.39 836.23L2016.39 886.23L1973.08 911.23L1929.78 886.23L1929.78 836.23z" stroke="rgba(6, 80, 156, 0.93)" stroke-width="2"></path>
    </g>
    <defs>
        <mask id="SvgjsMask1008">
            <rect width="1920" height="1080" fill="#ffffff"></rect>
        </mask>
    </defs>
</svg>