<svg xmlns="http://www.w3.org/2000/svg" width="60" height="82" viewBox="0 0 60 82">
  <g id="Gruppe_7" data-name="Gruppe 7" transform="translate(-419 -482)">
    <circle id="Ellipse_50" data-name="Ellipse 50" cx="2.5" cy="2.5" r="2.5" transform="translate(424 498) rotate(180)" fill="#6f7fa5"/>
    <circle id="Ellipse_56" data-name="Ellipse 56" cx="2.5" cy="2.5" r="2.5" transform="translate(424 553) rotate(180)" fill="#6f7fa5"/>
    <circle id="Ellipse_49" data-name="Ellipse 49" cx="2.5" cy="2.5" r="2.5" transform="translate(435 554) rotate(90)" fill="#6f7fa5"/>
    <circle id="Ellipse_45" data-name="Ellipse 45" cx="2.5" cy="2.5" r="2.5" transform="translate(479 554) rotate(90)" fill="#6f7fa5"/>
    <circle id="Ellipse_51" data-name="Ellipse 51" cx="2.5" cy="2.5" r="2.5" transform="translate(424 487) rotate(180)" fill="#6f7fa5"/>
    <circle id="Ellipse_54" data-name="Ellipse 54" cx="2.5" cy="2.5" r="2.5" transform="translate(424 542) rotate(180)" fill="#6f7fa5"/>
    <circle id="Ellipse_46" data-name="Ellipse 46" cx="2.5" cy="2.5" r="2.5" transform="translate(468 554) rotate(90)" fill="#6f7fa5"/>
    <circle id="Ellipse_55" data-name="Ellipse 55" cx="2.5" cy="2.5" r="2.5" transform="translate(424 531) rotate(180)" fill="#6f7fa5"/>
    <circle id="Ellipse_47" data-name="Ellipse 47" cx="2.5" cy="2.5" r="2.5" transform="translate(457 554) rotate(90)" fill="#6f7fa5"/>
    <circle id="Ellipse_52" data-name="Ellipse 52" cx="2.5" cy="2.5" r="2.5" transform="translate(424 520) rotate(180)" fill="#6f7fa5"/>
    <circle id="Ellipse_57" data-name="Ellipse 57" cx="2.5" cy="2.5" r="2.5" transform="translate(424 564) rotate(180)" fill="#6f7fa5"/>
    <circle id="Ellipse_48" data-name="Ellipse 48" cx="2.5" cy="2.5" r="2.5" transform="translate(446 554) rotate(90)" fill="#6f7fa5"/>
    <circle id="Ellipse_53" data-name="Ellipse 53" cx="2.5" cy="2.5" r="2.5" transform="translate(424 509) rotate(180)" fill="#6f7fa5"/>
  </g>
</svg>
