<svg version="1.1" viewBox="0 0 60 74" xmlns="http://www.w3.org/2000/svg">
 <g transform="translate(-418.92 -644.03)" fill="#6f7fa5" data-name="Gruppe 8">
  <circle transform="rotate(180,212,359)" cx="2.5" cy="2.5" r="2.5" data-name="Ellipse 80"/>
  <circle transform="rotate(90,-139,574)" cx="2.5" cy="2.5" r="2.5" data-name="Ellipse 90"/>
  <circle transform="rotate(180,212,353.5)" cx="2.5" cy="2.5" r="2.5" data-name="Ellipse 62"/>
  <circle transform="rotate(90,-117,596)" cx="2.5" cy="2.5" r="2.5" data-name="Ellipse 86"/>
  <circle transform="rotate(180,212,348)" cx="2.5" cy="2.5" r="2.5" data-name="Ellipse 64"/>
  <circle transform="rotate(90,-122.5,590.5)" cx="2.5" cy="2.5" r="2.5" data-name="Ellipse 87"/>
  <circle transform="rotate(180,212,342.5)" cx="2.5" cy="2.5" r="2.5" data-name="Ellipse 66"/>
  <circle transform="rotate(90,-128,585)" cx="2.5" cy="2.5" r="2.5" data-name="Ellipse 88"/>
  <circle transform="rotate(180,212,337)" cx="2.5" cy="2.5" r="2.5" data-name="Ellipse 68"/>
  <circle transform="rotate(90,-133.5,579.5)" cx="2.5" cy="2.5" r="2.5" data-name="Ellipse 89"/>
 </g>
</svg>
