<svg xmlns="http://www.w3.org/2000/svg" width="412" height="27" viewBox="0 0 412 27">
  <g id="Gruppe_6" data-name="Gruppe 6" transform="translate(-67 -449)">
    <circle id="Ellipse_23" data-name="Ellipse 23" cx="2.5" cy="2.5" r="2.5" transform="translate(380 471) rotate(90)" fill="#6f7fa5"/>
    <circle id="Ellipse_33" data-name="Ellipse 33" cx="2.5" cy="2.5" r="2.5" transform="translate(270 471) rotate(90)" fill="#6f7fa5"/>
    <circle id="Ellipse_13" data-name="Ellipse 13" cx="2.5" cy="2.5" r="2.5" transform="translate(435 471) rotate(90)" fill="#6f7fa5"/>
    <circle id="Ellipse_14" data-name="Ellipse 14" cx="2.5" cy="2.5" r="2.5" transform="translate(325 471) rotate(90)" fill="#6f7fa5"/>
    <circle id="Ellipse_24" data-name="Ellipse 24" cx="2.5" cy="2.5" r="2.5" transform="translate(215 471) rotate(90)" fill="#6f7fa5"/>
    <circle id="Ellipse_38" data-name="Ellipse 38" cx="2.5" cy="2.5" r="2.5" transform="translate(127 471) rotate(90)" fill="#6f7fa5"/>
    <circle id="Ellipse_5" data-name="Ellipse 5" cx="2.5" cy="2.5" r="2.5" transform="translate(479 471) rotate(90)" fill="#6f7fa5"/>
    <circle id="Ellipse_22" data-name="Ellipse 22" cx="2.5" cy="2.5" r="2.5" transform="translate(369 471) rotate(90)" fill="#6f7fa5"/>
    <circle id="Ellipse_32" data-name="Ellipse 32" cx="2.5" cy="2.5" r="2.5" transform="translate(259 471) rotate(90)" fill="#6f7fa5"/>
    <circle id="Ellipse_12" data-name="Ellipse 12" cx="2.5" cy="2.5" r="2.5" transform="translate(424 471) rotate(90)" fill="#6f7fa5"/>
    <circle id="Ellipse_15" data-name="Ellipse 15" cx="2.5" cy="2.5" r="2.5" transform="translate(314 471) rotate(90)" fill="#6f7fa5"/>
    <circle id="Ellipse_25" data-name="Ellipse 25" cx="2.5" cy="2.5" r="2.5" transform="translate(204 471) rotate(90)" fill="#6f7fa5"/>
    <circle id="Ellipse_37" data-name="Ellipse 37" cx="2.5" cy="2.5" r="2.5" transform="translate(116 471) rotate(90)" fill="#6f7fa5"/>
    <circle id="Ellipse_6" data-name="Ellipse 6" cx="2.5" cy="2.5" r="2.5" transform="translate(468 471) rotate(90)" fill="#6f7fa5"/>
    <circle id="Ellipse_21" data-name="Ellipse 21" cx="2.5" cy="2.5" r="2.5" transform="translate(358 471) rotate(90)" fill="#6f7fa5"/>
    <circle id="Ellipse_31" data-name="Ellipse 31" cx="2.5" cy="2.5" r="2.5" transform="translate(248 471) rotate(90)" fill="#6f7fa5"/>
    <circle id="Ellipse_41" data-name="Ellipse 41" cx="2.5" cy="2.5" r="2.5" transform="translate(160 471) rotate(90)" fill="#6f7fa5"/>
    <circle id="Ellipse_11" data-name="Ellipse 11" cx="2.5" cy="2.5" r="2.5" transform="translate(413 471) rotate(90)" fill="#6f7fa5"/>
    <circle id="Ellipse_16" data-name="Ellipse 16" cx="2.5" cy="2.5" r="2.5" transform="translate(303 471) rotate(90)" fill="#6f7fa5"/>
    <circle id="Ellipse_26" data-name="Ellipse 26" cx="2.5" cy="2.5" r="2.5" transform="translate(193 471) rotate(90)" fill="#6f7fa5"/>
    <circle id="Ellipse_36" data-name="Ellipse 36" cx="2.5" cy="2.5" r="2.5" transform="translate(105 471) rotate(90)" fill="#6f7fa5"/>
    <circle id="Ellipse_7" data-name="Ellipse 7" cx="2.5" cy="2.5" r="2.5" transform="translate(457 471) rotate(90)" fill="#6f7fa5"/>
    <circle id="Ellipse_20" data-name="Ellipse 20" cx="2.5" cy="2.5" r="2.5" transform="translate(347 471) rotate(90)" fill="#6f7fa5"/>
    <circle id="Ellipse_30" data-name="Ellipse 30" cx="2.5" cy="2.5" r="2.5" transform="translate(237 471) rotate(90)" fill="#6f7fa5"/>
    <circle id="Ellipse_40" data-name="Ellipse 40" cx="2.5" cy="2.5" r="2.5" transform="translate(149 471) rotate(90)" fill="#6f7fa5"/>
    <circle id="Ellipse_10" data-name="Ellipse 10" cx="2.5" cy="2.5" r="2.5" transform="translate(402 471) rotate(90)" fill="#6f7fa5"/>
    <circle id="Ellipse_17" data-name="Ellipse 17" cx="2.5" cy="2.5" r="2.5" transform="translate(292 471) rotate(90)" fill="#6f7fa5"/>
    <circle id="Ellipse_27" data-name="Ellipse 27" cx="2.5" cy="2.5" r="2.5" transform="translate(182 471) rotate(90)" fill="#6f7fa5"/>
    <circle id="Ellipse_35" data-name="Ellipse 35" cx="2.5" cy="2.5" r="2.5" transform="translate(94 471) rotate(90)" fill="#6f7fa5"/>
    <circle id="Ellipse_8" data-name="Ellipse 8" cx="2.5" cy="2.5" r="2.5" transform="translate(446 471) rotate(90)" fill="#6f7fa5"/>
    <circle id="Ellipse_18" data-name="Ellipse 18" cx="2.5" cy="2.5" r="2.5" transform="translate(336 471) rotate(90)" fill="#6f7fa5"/>
    <circle id="Ellipse_28" data-name="Ellipse 28" cx="2.5" cy="2.5" r="2.5" transform="translate(226 471) rotate(90)" fill="#6f7fa5"/>
    <circle id="Ellipse_39" data-name="Ellipse 39" cx="2.5" cy="2.5" r="2.5" transform="translate(138 471) rotate(90)" fill="#6f7fa5"/>
    <circle id="Ellipse_9" data-name="Ellipse 9" cx="2.5" cy="2.5" r="2.5" transform="translate(391 471) rotate(90)" fill="#6f7fa5"/>
    <circle id="Ellipse_19" data-name="Ellipse 19" cx="2.5" cy="2.5" r="2.5" transform="translate(281 471) rotate(90)" fill="#6f7fa5"/>
    <circle id="Ellipse_29" data-name="Ellipse 29" cx="2.5" cy="2.5" r="2.5" transform="translate(171 471) rotate(90)" fill="#6f7fa5"/>
    <circle id="Ellipse_34" data-name="Ellipse 34" cx="2.5" cy="2.5" r="2.5" transform="translate(83 471) rotate(90)" fill="#6f7fa5"/>
    <circle id="Ellipse_42" data-name="Ellipse 42" cx="2.5" cy="2.5" r="2.5" transform="translate(72 471) rotate(90)" fill="#6f7fa5"/>
    <circle id="Ellipse_43" data-name="Ellipse 43" cx="2.5" cy="2.5" r="2.5" transform="translate(72 460) rotate(90)" fill="#6f7fa5"/>
    <circle id="Ellipse_44" data-name="Ellipse 44" cx="2.5" cy="2.5" r="2.5" transform="translate(72 449) rotate(90)" fill="#6f7fa5"/>
  </g>
</svg>
